<svg xmlns="http://www.w3.org/2000/svg" viewBox="0 0 64 64">
  <rect width="64" height="64" rx="12" fill="#111214"/>
  <path d="M18 15 Q32 3 46 15" fill="none" stroke="#4da3ff" stroke-width="4" stroke-linecap="round"/>
  <path d="M23 19 Q32 11 41 19" fill="none" stroke="#4da3ff" stroke-width="3.5" stroke-linecap="round"/>
  <path d="M28 23 Q32 19 36 23" fill="none" stroke="#4da3ff" stroke-width="3" stroke-linecap="round"/>
  <rect x="20" y="26" width="24" height="8" rx="3" fill="#e8720c" opacity=".5"/>
  <rect x="14" y="38" width="36" height="8" rx="3" fill="#e8720c" opacity=".75"/>
  <rect x="8" y="50" width="48" height="8" rx="3" fill="#e8720c"/>
  <path d="M41 53c0-2.6 2-4.8 4.6-5 .8-2.5 3.1-4.2 5.9-4.2 3.5 0 6.4 2.6 6.8 6 2.2.2 3.9 2 3.9 4.2 0 2.5-2 4.5-4.7 4.5H46c-2.8 0-5-2.4-5-5.5Z" fill="#fff" stroke="#4da3ff" stroke-width="1.5" stroke-linejoin="round"/>
</svg>